<?xml version="1.0" encoding="UTF-8" standalone="no"?>
<!-- Created with Inkscape (http://www.inkscape.org/) -->

<svg
   width="80"
   height="80"
   viewBox="0 0 80 80"
   version="1.1"
   id="svg1"
   inkscape:export-filename="Auto Steps.png"
   inkscape:export-xdpi="96"
   inkscape:export-ydpi="96"
   sodipodi:docname="drawing.svg"
   inkscape:version="1.4.2 (ebf0e94, 2025-05-08)"
   xml:space="preserve"
   xmlns:inkscape="http://www.inkscape.org/namespaces/inkscape"
   xmlns:sodipodi="http://sodipodi.sourceforge.net/DTD/sodipodi-0.dtd"
   xmlns="http://www.w3.org/2000/svg"
   xmlns:svg="http://www.w3.org/2000/svg"><sodipodi:namedview
     id="namedview1"
     pagecolor="#ffffff"
     bordercolor="#000000"
     borderopacity="0.25"
     inkscape:showpageshadow="2"
     inkscape:pageopacity="0.0"
     inkscape:pagecheckerboard="0"
     inkscape:deskcolor="#d1d1d1"
     inkscape:document-units="px"
     inkscape:zoom="5.6568543"
     inkscape:cx="54.00528"
     inkscape:cy="58.247921"
     inkscape:window-width="1920"
     inkscape:window-height="1008"
     inkscape:window-x="0"
     inkscape:window-y="0"
     inkscape:window-maximized="1"
     inkscape:current-layer="layer2"
     showguides="false"><inkscape:page
       x="0"
       y="0"
       width="80"
       height="80"
       id="page2"
       margin="0"
       bleed="0" /></sodipodi:namedview><defs
     id="defs1"><marker
       style="overflow:visible"
       id="marker7"
       refX="0"
       refY="0"
       orient="auto-start-reverse"
       inkscape:stockid="Dart arrow"
       markerWidth="1"
       markerHeight="1"
       viewBox="0 0 1 1"
       inkscape:isstock="true"
       inkscape:collect="always"
       preserveAspectRatio="xMidYMid"><path
         style="fill:context-stroke;fill-rule:evenodd;stroke:none"
         d="M 0,0 5,-5 -12.5,0 5,5 Z"
         transform="scale(-0.5)"
         id="path7" /></marker><marker
       style="overflow:visible"
       id="marker7-6"
       refX="0"
       refY="0"
       orient="auto-start-reverse"
       inkscape:stockid="Dart arrow"
       markerWidth="1"
       markerHeight="1"
       viewBox="0 0 1 1"
       inkscape:isstock="true"
       inkscape:collect="always"
       preserveAspectRatio="xMidYMid"><path
         style="fill:context-stroke;fill-rule:evenodd;stroke:none"
         d="M 0,0 5,-5 -12.5,0 5,5 Z"
         transform="scale(-0.5)"
         id="path7-1" /></marker></defs><g
     inkscape:groupmode="layer"
     id="layer9"
     inkscape:label="Inspect All Clause"
     transform="matrix(1.1428571,0,0,1.1428571,-30.471409,-22.900161)"
     style="display:none"><rect
       style="fill:none;stroke:#000000;stroke-width:0.875;stroke-linecap:butt;stroke-miterlimit:4;stroke-dasharray:none"
       id="rect5"
       width="66.26725"
       height="18.971142"
       x="18.349981"
       y="15.22514"
       inkscape:label="superior square" /><rect
       style="fill:none;stroke:#000000;stroke-width:0.875;stroke-linecap:butt;stroke-miterlimit:4;stroke-dasharray:none"
       id="rect5-3"
       width="66.26725"
       height="18.971142"
       x="18.349981"
       y="75.879005"
       inkscape:label="inferion square" /><path
       style="display:inline;fill:none;stroke:#000000;stroke-width:0.875;stroke-linecap:butt;stroke-miterlimit:4;stroke-dasharray:none;marker-end:url(#marker7-6)"
       d="m 86.438188,22.99634 c 14.282732,10.144226 16.718722,41.940002 3.814584,60.508269"
       id="path1-3-4"
       sodipodi:nodetypes="cc"
       inkscape:label="line" /><ellipse
       style="display:inline;fill:#000000;fill-opacity:1;stroke:#000000;stroke-width:0;stroke-linecap:butt;stroke-miterlimit:4;stroke-dasharray:none;stroke-opacity:1"
       id="path10-7"
       cx="86.920273"
       cy="23.333929"
       rx="0.75778526"
       ry="0.75878906" /></g><g
     inkscape:groupmode="layer"
     id="layer9-0"
     inkscape:label="Inspect Next Clause"
     transform="matrix(1.1428571,0,0,1.1428571,-30.471408,-22.900161)"
     style="display:none"><rect
       style="fill:none;stroke:#000000;stroke-width:0.875;stroke-linecap:butt;stroke-miterlimit:4;stroke-dasharray:none"
       id="rect5-6"
       width="66.26725"
       height="18.971142"
       x="18.349981"
       y="15.22514"
       inkscape:label="superior square" /><rect
       style="fill:none;stroke:#000000;stroke-width:0.875;stroke-linecap:butt;stroke-miterlimit:4;stroke-dasharray:none"
       id="rect5-3-1"
       width="66.26725"
       height="18.971142"
       x="18.349981"
       y="75.879005"
       inkscape:label="inferion square" /><path
       style="display:inline;fill:none;stroke:#000000;stroke-width:0.875;stroke-linecap:butt;stroke-miterlimit:4;stroke-dasharray:none;marker-end:url(#marker7)"
       d="m 86.412816,22.996337 c 14.282724,10.144226 16.718714,41.940002 3.814582,60.508269"
       id="path1-3"
       sodipodi:nodetypes="cc"
       inkscape:label="line" /><ellipse
       style="display:inline;fill:#000000;fill-opacity:1;stroke:#000000;stroke-width:0;stroke-linecap:butt;stroke-miterlimit:4;stroke-dasharray:none;stroke-opacity:1"
       id="path10"
       cx="86.894897"
       cy="23.333929"
       rx="0.75778496"
       ry="0.75878906" /></g><g
     inkscape:groupmode="layer"
     id="layer2"
     inkscape:label="Auto Steps"
     style="display:none"
     transform="translate(-20.000002,-20.000002)"><path
       style="fill:none;stroke:#000000;stroke-width:2;stroke-dasharray:none"
       d="M 21.187859,19.911373 V 99.911372 L 97.652328,55.279213 Z"
       id="path2"
       sodipodi:nodetypes="cccc" /></g><g
     inkscape:groupmode="layer"
     id="layer4"
     inkscape:label="Pause Auto"
     style="display:none"
     transform="translate(-20.000002,-20.000002)"><rect
       style="fill:none;stroke:#000000;stroke-width:2;stroke-dasharray:none"
       id="rect4"
       width="38"
       height="88.388344"
       x="13"
       y="15.805828"
       ry="5.126524"
       rx="4.5204463" /><rect
       style="display:inline;fill:none;stroke:#000000;stroke-width:2;stroke-dasharray:none"
       id="rect4-3"
       width="38"
       height="88.388344"
       x="69"
       y="15.805828"
       ry="5.126524"
       rx="4.5204463" /></g><g
     inkscape:label="Decision"
     inkscape:groupmode="layer"
     id="layer1"
     transform="matrix(1.1428571,0,0,1.1428571,-30.471409,-22.900161)"
     style="display:inline"><g
       id="box"
       transform="matrix(3.5,0,0,3.4993559,-20.691711,2.615503)"
       style="display:inline"><rect
         style="fill:#1a1a1a"
         id="rect1"
         width="0.5"
         height="20"
         x="13.530741"
         y="4.9786701"
         ry="0.20579761" /><rect
         style="fill:#1a1a1a"
         id="rect1-5"
         height="0.5"
         x="13.52977"
         y="24.482351"
         width="20"
         ry="0.25" /></g><g
       inkscape:groupmode="layer"
       id="layer3"
       inkscape:label="Layer 2"
       style="display:inline"
       transform="translate(44,44.001841)"><path
         id="use1"
         d="m 24.785865,8.1553177 c 3.419224,-5.127889 5.128837,-10.065862 5.128837,-14.687294 0,-3.418594 -1.329699,-5.1278917 -3.925775,-5.1278917 -2.469439,0 -4.812241,1.8359107 -7.155043,5.5710437 -1.456336,2.342371 -2.596076,4.43151 -3.419223,6.33072999 C 12.122074,7.7754727 10.475783,14.992506 10.475783,21.829695 l -4.6856032,4.558126 c -0.25326,0.316551 -0.379915,0.569767 -0.379915,0.759687 0,0.696381 0.31661,1.076225 1.013107,1.076225 0.25326,0 1.646291,-1.266145 4.2423662,-3.798439 0.886466,6.204116 3.292587,9.306176 7.155043,9.306176 2.342802,0 5.192156,-1.456068 8.484739,-4.431515 1.013103,-0.886298 1.519654,-1.519374 1.519654,-1.899215 0,-0.696382 -0.316575,-1.012919 -1.013103,-1.012919 -0.189945,0 -0.506551,0.18991 -0.949784,0.633075 -3.292583,3.228669 -5.951981,4.811355 -7.914869,4.811355 -2.342802,0 -3.54586,-2.595601 -3.54586,-7.850105 0,-3.798439 -0.06331,-3.355288 1.582973,-5.00128 3.102631,-3.102057 6.078621,-6.710576 8.801334,-10.8255483 m 1.266381,-17.915968 c 1.266377,0 1.899569,1.012916 1.899569,2.975442 0,6.77388299 -4.242371,14.687298 -12.790432,23.8035483 0.886466,-5.001276 4.052416,-16.64981931 6.14194,-21.0813303 1.836251,-3.79844 3.419224,-5.69766 4.748923,-5.69766 z"
         style="fill:#000000;stroke:#000000;stroke-width:0" /></g></g></svg>
